<?xml version="1.0" encoding="utf-8"?>
<!-- Designed by Vexels.com - 2020 All Rights Reserved - https://vexels.com/terms-and-conditions/  -->
<svg version="1.1" id="Layer_1" xmlns="http://www.w3.org/2000/svg" xmlns:xlink="http://www.w3.org/1999/xlink" x="0px" y="0px"
	 viewBox="0 0 1200 1200" enable-background="new 0 0 1200 1200" xml:space="preserve">
<g>
	<path fill="#08535B" d="M1058.994,456.701c-12.774-38.82,1.302-84.89,32.737-107.154c3.452-2.45,7.276-4.724,11.685-6.957
		c0.668-0.338,2.034-0.886,3.67-1.531c2.484-0.979,8.293-3.276,9.156-4.3c1.096-2.721-2.777-10.537-7.032-16.414
		c-6.604-9.134-18.027-15.96-33.942-20.283c-23.326-6.334-59.572-6.98-83.689,4.049c-21.446,9.802-41.357,27.409-59.185,52.326
		c-9.456,13.224-18.534,26.388-25.63,42.055c-3.512,7.757-6.278,14.597-9.209,21.844c-1.242,3.073-2.514,6.21-3.876,9.509
		c-7.066,17.1-20.189,31.78-33.023,45.35l-2.739,2.901c-11.584,12.26-22.523,23.836-35.049,34.775
		c-0.807,0.702-1.576,1.4-2.33,2.083c-3.681,3.336-7.16,6.484-12.417,8.282c-5.764,1.97-11.565,3.779-17.374,5.595
		c-2.619,0.814-5.235,1.632-7.854,2.465c-24.028,7.644-47.74,20.485-74.62,40.407c-26.054,19.311-54.543,37.972-84.673,55.463
		c-4.207,2.443-8.473,4.818-12.744,7.197c-8.076,4.503-16.429,9.156-24.253,14.226c-1.959,1.272-4.192,2.619-6.563,4.049
		c-11.524,6.957-27.307,16.489-27.307,27.941c-0.874,15.96,8.969,28.921,25.69,33.931c10.916,3.268,22.268,3.314,33.24,3.355
		c7.261,0.03,14.77,0.056,22.181,1.002c6.109,0.777,8.03,4.045,9.727,6.927c1.054,1.794,2.053,3.486,4.072,4.886
		c3.216,2.225,7.411,3.272,11.854,4.379c4.195,1.043,8.53,2.124,12.275,4.308c16.913,9.854,31.229,16.222,50.329,17.517
		c2.218,0.139,13.318-0.116,19.352-0.349c2.683-0.101,5.441-0.371,8.222-0.642c7.017-0.683,14.275-1.388,21.164,0.364
		c4.957,1.261,8.912,4.293,12.736,7.224c2.829,2.173,5.505,4.222,8.541,5.599c0.435,0.195,0.983,0.39,1.576,0.604
		c2.432,0.882,5.76,2.09,6.86,4.788c0.563,1.377,0.462,2.878-0.304,4.466c-2.334,4.875-7.374,2.837-9.79,1.861
		c-0.405-0.165-0.792-0.323-1.148-0.447c-4.27-1.505-7.663-4.207-10.946-6.818c-2.972-2.36-5.775-4.593-9.036-5.816
		c-4.631-1.737-10.35-1.115-15.873-0.507c-1.689,0.184-3.332,0.364-4.893,0.469c-18.534,1.257-38.344,1.49-57.654-5.347
		c-8.83-3.126-15.956-7.445-23.078-11.971c-4.072-2.586-8.379-3.734-12.939-4.953c-3.306-0.882-6.728-1.794-10.094-3.302
		c-3.775-1.689-5.982-4.721-7.929-7.396c-1.509-2.075-2.814-3.869-4.492-4.574c-3.501-1.471-9.925-0.893-15.596-0.372
		c-3.445,0.311-6.702,0.6-9.246,0.458c-15.806-0.927-44.396-5.032-58.303-22.088c-6.263-7.685-8.92-17.149-7.91-28.17
		c-6.541,1.497-13.389,1.332-20.02,1.167c-2.499-0.064-4.983-0.116-7.453-0.094c-9.652,0.116-22.41,0.345-35.548,1.096
		c-11.637,0.672-24.238,2.053-37.522,7.569c-10.657,4.42-16.387,8.762-17.029,12.901c-0.353,2.3,1.002,4.758,4.026,7.306
		c7.19,6.057,21.48,11.051,31.274,12.676c4.139,0.687,8.241,1.332,12.323,1.974c13.269,2.083,25.799,4.049,38.873,7.325
		c18.372,4.608,36.362,8.214,53.47,10.721c5.843,0.856,12.019,1.088,17.99,1.31c9.483,0.357,19.288,0.724,28.516,3.539
		c5.043,1.542,9.205,4.443,13.228,7.25c2.049,1.426,4.165,2.904,6.349,4.158c4.935,2.837,10.781,5.31,17.382,7.355l3.16,0.987
		c6.781,2.124,13.794,4.323,20.654,5.269c3.501,0.48,7.453,0.732,11.734,0.743c0.008,0,0.011,0,0.015,0
		c0.773,0,1.903-0.154,3.182-0.315c4.349-0.555,9.273-1.178,11.58,1.231c2,2.086,2.627,4.072,1.857,5.899
		c-1.253,2.987-6.267,4.548-14.901,4.638c-9.562,0.053-18.159-0.987-26.328-3.34c-14.691-4.244-29.03-8.837-42.933-18.361
		c-9.873-6.758-22.523-7.197-34.756-7.625c-3.989-0.135-8.117-0.281-12.046-0.645c-17.997-1.677-36.235-5.891-53.868-9.971
		l-3.58-0.826c-3.82-0.882-7.764-2.011-11.937-3.205c-11.186-3.201-22.755-6.537-33.086-5.377c-8.368,0.919-17.1,4.019-25.547,7.017
		c-3.561,1.265-7.074,2.51-10.5,3.576c-15.614,4.856-32.771,7.884-49.361,10.815c-8.466,1.497-17.22,3.043-25.622,4.807
		c-19.813,4.165-39.015,8.657-60.266,13.674c-19.667,4.646-39.488,11.333-58.66,17.795c-6.214,2.098-12.406,4.184-18.579,6.203
		c-19.791,6.462-39.946,10.214-59.44,13.839c-4.706,0.874-9.415,1.753-14.128,2.668c-18.474,3.58-34.103,6.297-50.314,7.907
		c-6.942,0.69-13.873,1.325-20.812,1.959l-6.98,0.642c-0.863,0.079-1.861,0.139-2.931,0.206c-3.257,0.199-7.31,0.45-9.704,1.418
		c-2.758,1.122-3.077,1.884-3.081,1.891c0.788,2.218,14.924,5.824,19.716,6.012c6.597,0.266,13.535,0.274,21.251,0.019
		c25.15-0.811,53.662-1.734,80.811-4.961c17.975-2.139,31.593-4.057,44.16-6.218c11.055-1.899,22.159-5.332,32.899-8.653
		c7.25-2.24,14.744-4.559,22.181-6.394c20.331-5.017,40.862-10.811,60.716-16.417c15.918-4.492,32.377-9.137,48.652-13.363
		l1.921-0.495c19.007-4.935,38.663-10.034,57.846-15.404c3.07-0.859,6.12-1.756,9.175-2.649c6.128-1.797,12.466-3.655,18.823-5.175
		c0.379-0.09,1.058-0.308,1.933-0.585c7.453-2.353,14.973-4.387,17.937-1.186c0.893,0.961,1.692,2.758,0.454,5.869
		c-1.903,4.769-10.71,6.199-17.787,7.347c-1.948,0.319-3.64,0.589-4.766,0.889c-4.075,1.088-8.124,2.293-12.17,3.497
		c-3.741,1.111-7.479,2.225-11.243,3.25c-21.81,5.948-41.383,11.149-59.834,15.911c-16.879,4.349-33.957,9.149-50.472,13.787
		c-19.847,5.576-40.37,11.344-60.728,16.384c-7.629,1.888-15.31,4.24-22.737,6.514c-4.109,1.257-8.286,2.537-12.5,3.753
		c0.387-0.06,0.754-0.113,1.1-0.15c6.409-0.702,12.8-1.407,19.194-2.214c8.034-1.009,16.147-2.443,23.994-3.831
		c4.004-0.705,8.012-1.415,12.027-2.071c7.576-1.242,15.13-2.657,22.437-4.023c15.87-2.972,32.283-6.045,49.2-7.348
		c26.264-2.03,54.183-4.769,87.859-8.616c5.167-0.589,10.357-1.096,15.554-1.602c10.346-1.009,21.041-2.053,31.386-3.779
		c8.222-1.373,15.776-3.017,23.082-4.608c6.057-1.317,12.32-2.679,19.048-3.914c5.077-0.931,10.289-1.599,15.333-2.244
		c7.535-0.964,15.325-1.963,22.703-3.854c10.95-2.803,21.757-1.456,32.216-0.139c5.036,0.63,10.245,1.283,15.445,1.471
		c0.799,0.03,1.501,0.555,1.752,1.317c0.251,0.762,0.004,1.602-0.623,2.101c-1.884,1.512-2.784,3.178-2.473,4.571
		c0.319,1.418,1.895,2.597,4.214,3.152c3.666,0.871,8.166,0.019,12.511-0.811c1.325-0.255,2.615-0.499,3.839-0.687l2.312-0.357
		c11.847-1.839,24.095-3.726,36.103-1.426c3.951,0.758,8.256,0.709,12.406,0.683c6.912-0.049,14.012-0.128,20.151,3.344
		c9.704,5.49,19.81,7.712,32.906,7.194c1.193-0.045,2.387-0.143,3.572-0.236c3.723-0.296,7.58-0.6,11.419,0.559
		c1.426,0.432,2.676,0.874,3.839,1.291c3.888,1.381,6.443,2.293,11.472,1.13c1.914-0.443,3.602-0.908,5.118-1.325
		c8.743-2.413,12.909-3.002,19.859,8.038c7.059,11.216,12.155,19.318,23.983,25.626c4.818,2.57,8.323,6.893,11.716,11.074
		c3.175,3.914,6.173,7.61,9.85,9.329c9.408,6.837,22.786,9.704,32.411,10.939c0.143,0.019,0.278,0.053,0.413,0.101
		c1.996,0.724,3.996,1.452,5.963,2.255c0.747,0.308,1.223,1.047,1.193,1.857c-0.034,0.807-0.567,1.509-1.34,1.752
		c-7.167,2.282-16.65,5.216-26.433,7.667l-2.473,0.634c-3.137,0.811-5.846,1.516-9.603,1.993c-3.171,0.402-6.282,0.188-9.288-0.015
		c-3.445-0.24-6.706-0.462-9.911,0.206c-6.072,1.268-13.637,4.841-16.346,9.209c-1.325,2.135-1.407,3.441-1.073,3.91
		c0.394,0.567,1.94,0.934,4.402,0.387c1.227-0.27,2.293-0.552,3.265-0.811c2.12-0.559,3.936-1.039,6-1.039
		c1.97,0,4.165,0.439,7.055,1.67c1.276,0.54,2.469,1.118,3.633,1.685c3.37,1.632,6.087,3.043,10.128,2.976
		c11.678-0.214,23.649-3.644,35.225-6.965c7.862-2.252,15.99-4.582,23.96-5.884c11.839-1.94,20.271-0.161,30.944,2.086
		c15.727,3.302,28.283,3.805,40.726,1.632c2.788-0.488,5.91-0.878,9.16-1.28c7.952-0.983,16.962-2.098,22.988-5.107
		c1.955-0.976,3.141-2.39,4.398-3.888c1.689-2.015,3.599-4.297,7.366-5.186c6.961-1.651,12.789,2,17.948,5.208l0.447,0.278
		c0.03,0.019,0.06,0.041,0.09,0.06c0.24-0.101,0.54-0.3,0.732-0.619c0.458-0.766,0.056-1.884-0.36-2.687
		c-2.788-5.347-9.85-8.323-20.999-8.849c-5.242-0.248-10.177-1.43-14.95-2.574c-4.837-1.159-9.408-2.255-14.312-2.473
		c-8.072-0.364-16.264,0.548-23.945,1.509c-1.527,0.191-3.032,0.394-4.518,0.597c-9.896,1.34-19.243,2.616-29.454-0.822
		c-6.623-2.225-13.948-5.407-21.772-9.456c-9.498-4.916-17.352-11.318-24.718-20.147c-5.711-6.841-7.032-16.031-8.312-24.913
		c-0.39-2.721-0.777-5.411-1.291-7.985c-1.989-9.321-0.814-22.155,3.043-34.317c-6.657,2.672-13.494,5.013-20.144,7.291
		c-2.477,0.848-4.95,1.696-7.415,2.559c-1.062,0.375-2.856,1.156-5.066,2.116c-12.894,5.599-23.904,9.933-27.9,6.316
		c-2.143-1.94-2.244-3.816-1.955-5.047c1.133-4.788,10.248-7.685,18.703-10.027c0.998-0.278,1.771-0.492,2.191-0.638l7.918-2.743
		c8.691-3.01,17.678-6.117,26.418-9.4c30.884-11.607,58.758-31.773,82.046-50.145c0.124-0.173,0.278-0.326,0.462-0.454
		c0.777-0.54,1.433-1.002,1.989-1.392c0.139-0.24,0.33-0.458,0.57-0.63c0.24-0.165,0.462-0.323,0.668-0.469
		c9.877-7.07,18.121-19.239,25.412-30.002c1.092-1.617,2.165-3.197,3.216-4.724c10.807-15.701,19.431-32.617,25.634-50.277
		l1.722-4.923c5.089-14.564,10.35-29.623,17.382-43.785c2.015-4.053,4.394-7.948,6.695-11.715
		c4.357-7.134,8.477-13.877,10.425-21.739c2.484-10.019,3.302-18.947,2.518-27.746c-12.004,13.322-25.675,25.818-45.657,28.366
		c-7.378,0.949-17.13,1.726-20.647-2.056c-0.818-0.874-1.692-2.405-1.227-4.709c0.912-4.514,8.293-5.092,19.45-5.456
		c3.464-0.113,6.736-0.221,8.087-0.604c8.256-2.33,16.234-7.246,23.071-14.207c1.25-1.276,2.698-2.657,4.222-4.109
		c4.717-4.503,10.064-9.607,12.443-14.237c1.625-3.171,2.39-7.423,3.13-11.532c0.473-2.631,0.961-5.347,1.677-7.79
		c0.499-1.707,1.475-3.64,2.51-5.685c1.317-2.604,2.807-5.558,2.863-7.404c0.034-1.096-1.118-3.527-1.959-5.302
		C1059.947,459.05,1059.339,457.752,1058.994,456.701z M985.508,608.833c-1.659,7.115-4.589,13.937-7.423,20.538
		c-0.781,1.816-1.557,3.625-2.308,5.437c-1.636,3.951-3.122,7.997-4.616,12.046c-2.417,6.556-4.916,13.337-8.038,19.697
		c-5.021,10.222-10.819,17.806-17.224,22.534c-2.372,1.752-4.961,2.95-7.464,4.105c-1.888,0.871-3.666,1.696-5.336,2.728
		c-3.749,2.319-6.207,5.437-8.815,8.74c-1.343,1.707-2.736,3.471-4.364,5.205c-17.532,18.714-34.944,26.38-53.264,23.39l-0.934-0.15
		c-4.383-0.721-4.841-0.799-9.182,1.681l-1.156,0.66c-3.636,2.094-6.773,3.903-11.449,4.533c-1.647,0.225-3.34,0.334-5.062,0.334
		c-8.484,0-17.663-2.653-25.416-7.464c-1.265-0.784-2.488-1.824-3.783-2.919c-2.135-1.805-4.342-3.674-6.432-4.075
		c-1.659-0.33-3.621,0.101-5.693,0.555c-2.387,0.522-4.856,1.055-7.419,0.627c-7.396-1.227-10.462-6.049-13.168-10.305
		c-1.906-3.002-3.711-5.835-6.89-7.509c-3.535-1.854-8.113-1.37-12.961-0.863c-4.751,0.503-9.674,1.028-14.125-0.649
		c-10.834-4.068-17.678-16.958-20.117-22.309c-3.505-7.704-6.229-14.86-8.327-21.877c-1.865-6.244-1.948-6.222-6.676-5.013
		c-1.509,0.39-3.389,0.871-5.7,1.231c-13.307,2.068-22.204,0.908-27.18-3.561c-2.814-2.526-3.768-5.49-4.533-7.873
		c-0.946-2.957-1.467-4.582-4.601-5.141c-2.259-0.398-4.721-0.233-7.089-0.075c-3.873,0.263-7.88,0.54-10.654-1.936
		c-1.899-1.692-2.908-4.409-3.085-8.304c-0.139-3.066-0.465-10.245,4.503-11.719c2.405-0.717,4.207-0.533,5.497,0.559
		c2.086,1.764,1.692,4.957,1.343,7.775c-0.124,1.017-0.315,2.552-0.165,2.987c0.514,0.735,3.951,0.469,6.462,0.266
		c5.043-0.387,11.31-0.886,14.995,3.385c1.572,1.816,2.105,4.154,2.578,6.214c0.394,1.711,0.762,3.325,1.614,4.293
		c1.974,2.24,4.942,2.267,8.376,2.297l1.175,0.015c2.555-0.011,5.674-0.649,9.066-1.373c6.165-1.317,12.541-2.683,17.179-0.443
		c5.891,2.852,8.338,11.468,10.492,19.07c0.799,2.826,1.557,5.49,2.379,7.385c0.439,1.002,0.871,2.034,1.313,3.081
		c3.025,7.201,6.454,15.359,13.25,19.307c4.117,2.39,9.036,1.936,14.267,1.456c4.432-0.409,9.006-0.833,13.352,0.507
		c5.49,1.692,8.113,6.023,10.432,9.847c1.872,3.092,3.644,6.012,6.71,7.438c2.248,1.043,4.522,0.57,7.145,0.015
		c1.475-0.308,2.998-0.63,4.608-0.687c5.846-0.229,9.359,2.387,13.111,5.13c0.848,0.623,1.73,1.268,2.679,1.91
		c3.595,2.432,16.192,10.117,27.371,6.698c1.801-0.548,3.336-1.655,4.961-2.826c1.238-0.893,2.518-1.816,4.004-2.563
		c5.475-2.743,9.483-1.936,13.712-1.084c1.43,0.285,2.946,0.593,4.638,0.781c19.044,2.109,33.263-14.342,44.708-27.559l1.85-2.131
		c3.569-4.102,8.027-6.304,12.342-8.436c2.856-1.415,5.557-2.751,8.053-4.608c6.139-4.567,11.325-12.173,15.855-23.251
		c2.041-4.998,4.011-10.023,5.982-15.052c2.525-6.451,5.137-13.123,7.877-19.63c4.267-10.147,8.646-21.982,6.559-34.036
		c-3.738-21.607-24.568-44.186-42.269-54.457c-0.552-0.323-1.797-0.811-3.118-1.328c-4.848-1.903-10.882-4.267-11.22-8.267
		c-0.195-2.315,0.713-3.67,1.508-4.402c1.539-1.411,4.053-1.831,7.43-1.253c10.353,1.775,19.904,10.886,27.581,18.204
		c0.972,0.931,1.914,1.827,2.811,2.668C971.451,551.573,992.874,577.319,985.508,608.833z M1044.75,374.873l-0.004,0.004
		c-1.366,0.934-2.732,1.261-4.102,0.998c-1.741-0.353-3.021-1.64-4.019-2.98c-3.482,3.723-8.522,5.246-13.881,5.246
		c-4.875,0-10.016-1.265-14.489-3.28c-8.942-4.026-16.857-11.884-16.14-21.052c-0.319,0.101-0.649,0.21-0.979,0.319
		c-3.599,1.182-7.674,2.514-10.571,0.45c-2.244-1.602-2.597-3.366-2.503-4.563c0.27-3.321,4.3-5.554,5.528-6.158
		c6.06-2.991,15.096-3.978,24.151-2.664c9.73,1.422,18.286,5.073,25.427,10.852c4.289,3.471,14.245,12.222,14.008,18.489
		C1047.11,372.321,1046.273,373.822,1044.75,374.873z"/>
	<path fill="#08535B" d="M964.655,805.396c-3.392,0.814-6.792,1.632-10.203,2.278c-24.497,4.642-49.042-2.304-63.808-17.802
		c-0.736,6.845-0.086,14.327,0.668,21.495c1.028,9.738,1.726,11.318,10.057,14.053c9.55,3.13,18.973,6.034,29.161,7.145
		c1.039,0.128,2.049,0.27,3.062,0.413c3.456,0.484,6.725,0.949,9.986,0.694c5.141-0.39,7.805-2.45,11.179-5.058
		c1.437-1.111,2.923-2.259,4.736-3.389c5.194-3.242,10.781-2.439,16.181-1.666c4.428,0.634,8.62,1.235,12.338-0.42
		c2.841-1.265,3.617-3.614,4.439-6.102c0.721-2.173,1.464-4.417,3.704-5.471c1.842-0.878,4.274-0.668,7.636,0.638
		c1.156,0.447,2.465,1.554,4.128,2.957c1.411,1.19,4.315,3.644,5.359,3.644c0,0,0,0,0.004,0c-0.023-0.064,0.169-0.454,0.255-1.452
		c0.218-2.548-3.985-6.875-10.462-10.762C990.675,799.152,978.044,802.18,964.655,805.396z"/>
	<path fill="#08535B" d="M1131.621,358.343c-0.037-0.034-0.071-0.071-0.105-0.109l-0.007,0.004
		c-0.004-0.011-0.011-0.019-0.015-0.026c-0.39-0.417-0.829-0.953-1.351-1.595c-1.362-1.677-3.422-4.207-4.177-4.995l-1.028-1.103
		c-1.025-1.111-2.079-2.263-3.107-2.998c-0.589-0.428-1.276-0.417-1.666-0.39l-0.908,0.462
		c-12.481,6.349-24.271,12.346-33.69,23.153c-8.342,9.58-12.796,21.127-16.369,32.174c-0.255,0.796-0.499,1.602-0.724,2.413
		c0.424-0.615,0.979-1.235,1.666-1.858c0.987-0.897,2.469-1.351,4.526-1.351c3.242,0,7.91,1.122,14.335,3.4
		c15.217,5.407,26.804,14.826,32.775,26.568c0.664,1.306,1.362,2.582,2.056,3.854c1.936,3.55,3.936,7.216,5.28,11.61
		c0.266,0.878,0.514,1.869,0.769,2.886c0.627,2.518,1.572,6.327,2.931,6.803c0.563,0.203,1.647-0.233,2.927-1.201
		c4.409-3.355,7.34-12.837,9.28-19.108l0.694-2.233c3.051-9.625,4.559-19.596,4.248-28.073
		c-0.537-16.331-7.573-34.824-18.358-48.273L1131.621,358.343z"/>
	<path fill="#08535B" d="M1067.614,409.374c-0.03-0.094-0.052-0.191-0.075-0.289c-3.096,14.155-2.034,30.501,3.07,46.089
		c3.576-2.045,8.282-2.769,12.856-3.479c3.809-0.585,7.404-1.141,10.061-2.375c10.98-5.107,16.883-9.374,17.539-12.68
		c0.315-1.591-0.139-3.268-1.392-5.118c-5.588-8.271-23.795-15.427-30.332-16.661l-0.946-0.165
		C1073.704,413.911,1068.616,412.789,1067.614,409.374z"/>
	<path fill="#08535B" d="M1016.211,357.791c-2.518-0.901-7.546-1.813-11.505-1.632c1.7,3.715,5.287,6.999,9.813,8.864
		c4.3,1.771,8.631,1.918,12.158,0.48c-0.627-1.069-1.362-2.124-2.18-3.107C1022.242,360.257,1019.405,359.037,1016.211,357.791z"/>
</g>
</svg>
